<svg width="34" height="34" fill="none" xmlns="http://www.w3.org/2000/svg"><path d="M17.007 2.833c3.797 0 6.918 2.984 7.076 6.764h-.037a.71.71 0 01-.061.32h.22c1.725 0 3.53 1.195 4.254 4.08l.079.34 1.09 8.776c.783 5.597-2.28 7.95-6.457 8.05l-.28.004H11.147c-4.245 0-7.517-1.547-6.797-7.674l.049-.38L5.5 14.337c.544-3.107 2.368-4.332 4.125-4.416l.195-.004h.11a.92.92 0 010-.32c.16-3.78 3.28-6.764 7.077-6.764zm-4.12 11.8c-.691 0-1.252.577-1.252 1.289 0 .711.56 1.288 1.252 1.288s1.252-.577 1.252-1.288l-.01-.162c-.077-.635-.603-1.127-1.242-1.127zm8.201 0c-.691 0-1.252.577-1.252 1.289 0 .711.56 1.288 1.252 1.288s1.252-.577 1.252-1.288c0-.712-.56-1.289-1.252-1.289zm-4.137-9.955c-2.725 0-4.935 2.202-4.935 4.919a.918.918 0 010 .32h9.933a.92.92 0 01-.062-.32c0-2.717-2.21-4.919-4.936-4.919z" fill="#fff"/></svg>