<svg width="112" height="56" fill="none" xmlns="http://www.w3.org/2000/svg"><g filter="url(#filter0_b_324_42)" fill="#fff"><mask id="a"><path fill-rule="evenodd" clip-rule="evenodd" d="M24 0C10.745 0 0 10.745 0 24s10.745 24 24 24h16.917a9.138 9.138 0 017.541 3.978c3.63 5.304 11.455 5.304 15.084 0A9.138 9.138 0 0171.082 48H88c13.255 0 24-10.745 24-24S101.255 0 88 0H24z"/></mask><path fill-rule="evenodd" clip-rule="evenodd" d="M24 0C10.745 0 0 10.745 0 24s10.745 24 24 24h16.917a9.138 9.138 0 017.541 3.978c3.63 5.304 11.455 5.304 15.084 0A9.138 9.138 0 0171.082 48H88c13.255 0 24-10.745 24-24S101.255 0 88 0H24z" fill-opacity=".2"/><path d="M.862 24C.862 11.221 11.22.862 24 .862V-.862C10.27-.862-.862 10.27-.862 24H.862zM24 47.139C11.221 47.139.862 36.779.862 24H-.862C-.862 37.73 10.27 48.861 24 48.861V47.14zm16.917 0H24v1.722h16.917V47.14zm47.083 0H71.083v1.722H88V47.14zM111.138 24c0 12.779-10.359 23.139-23.138 23.139v1.722c13.731 0 24.862-11.13 24.862-24.861h-1.724zM88 .862c12.779 0 23.138 10.359 23.138 23.138h1.724C112.862 10.27 101.731-.862 88-.862V.862zm-64 0h64V-.862H24V.862zm40.252 51.602a8.277 8.277 0 016.831-3.602v-1.724a10 10 0 00-8.252 4.353l1.421.973zm-16.504 0c3.97 5.804 12.534 5.804 16.505 0l-1.422-.973c-3.287 4.804-10.375 4.804-13.662 0l-1.421.973zm-6.831-3.602a8.277 8.277 0 016.83 3.602l1.422-.973a10 10 0 00-8.252-4.352v1.722z" fill-opacity=".6" mask="url(#a)"/></g><defs><filter id="filter0_b_324_42" x="-8" y="-8" width="128" height="71.956" filterUnits="userSpaceOnUse" color-interpolation-filters="sRGB"><feFlood flood-opacity="0" result="BackgroundImageFix"/><feGaussianBlur in="BackgroundImageFix" stdDeviation="4"/><feComposite in2="SourceAlpha" operator="in" result="effect1_backgroundBlur_324_42"/><feBlend in="SourceGraphic" in2="effect1_backgroundBlur_324_42" result="shape"/></filter></defs></svg>