<svg width="19" height="19" fill="none" xmlns="http://www.w3.org/2000/svg"><path d="M14.03 10.91a.838.838 0 00-.243.738l.677 3.747a.823.823 0 01-.342.823.839.839 0 01-.891.06L9.857 14.52a.86.86 0 00-.38-.1H9.27a.618.618 0 00-.205.069L5.69 16.256a.894.894 0 01-.541.083.847.847 0 01-.678-.968l.678-3.747a.853.853 0 00-.243-.745l-2.75-2.666a.822.822 0 01-.205-.86.855.855 0 01.677-.572l3.785-.549a.847.847 0 00.67-.464l1.668-3.42a.793.793 0 01.153-.205l.068-.053a.51.51 0 01.123-.1l.083-.03.13-.053h.32c.286.03.538.2.67.457l1.69 3.404a.846.846 0 00.632.464l3.786.55c.32.045.587.266.693.57.1.306.013.64-.221.861l-2.849 2.696z" fill="#F6B76F"/></svg>